<mxfile host="app.diagrams.net" modified="2024-03-15T08:44:52.001Z" agent="Mozilla/5.0 (Windows NT 10.0; Win64; x64) AppleWebKit/537.36 (KHTML, like Gecko) Chrome/122.0.0.0 Safari/537.36" version="23.1.6" etag="ipelR2UTG-QidnhIbxsf" type="github">
  <diagram name="Page-1" id="gaty4T2SwiH6FKAz6sAp">
    <mxGraphModel>
      <root>
        <mxCell id="0" />
        <mxCell id="1" parent="0" />
      </root>
    </mxGraphModel>
  </diagram>
</mxfile>
